<svg xmlns="http://www.w3.org/2000/svg" viewBox="0 0 100 100" width="100" height="100">
  <!-- Center hexagon -->
  <polygon points="50,25 75,37.5 75,62.5 50,75 25,62.5 25,37.5" fill="#FFDD00" />
  
  <!-- Top hexagon -->
  <polygon points="50,0 75,12.5 75,37.5 50,50 25,37.5 25,12.5" fill="#FFDD00" />
  
  <!-- Top right hexagon -->
  <polygon points="75,12.5 100,25 100,50 75,62.5 50,50 50,25" fill="#FFDD00" />
  
  <!-- Bottom right hexagon -->
  <polygon points="75,62.5 100,75 100,100 75,112.5 50,100 50,75" fill="#000000" />
  
  <!-- Bottom hexagon -->
  <polygon points="50,75 75,87.5 75,112.5 50,125 25,112.5 25,87.5" fill="#FFDD00" />
  
  <!-- Bottom left hexagon -->
  <polygon points="25,62.5 50,75 50,100 25,112.5 0,100 0,75" fill="#FFDD00" />
  
  <!-- Top left hexagon -->
  <polygon points="25,12.5 50,25 50,50 25,62.5 0,50 0,25" fill="#FFDD00" />
</svg> 